<svg xmlns="http://www.w3.org/2000/svg" fill="none" viewBox="0 0 24 24" id="Seaborn-Icon--Streamline-Svg-Logos" height="24" width="24">
  <desc>
    Seaborn Icon Streamline Icon: https://streamlinehq.com
  </desc>
  <path fill="#ffffff" d="M12.082975 0.4697275c-1.50325 0 -2.99185 0.296105 -4.380675 0.8713675 -1.3888 0.575265 -2.6508 1.418505 -3.71375 2.481455 -1.06295 1.06295 -1.906175 2.324925 -2.48144 3.71375 -0.5752625 1.3888 -0.8713675 2.877425 -0.8713675 4.38065 0 1.50325 0.296105 2.991875 0.8713675 4.380675 0.575265 1.3888 1.41849 2.6508 2.48144 3.71375 1.06295 1.06295 2.32495 1.906175 3.71375 2.48145 1.388825 0.57525 2.877425 0.871375 4.380675 0.871375 1.503225 0 2.99185 -0.296125 4.380675 -0.871375 1.3888 -0.575275 2.6508 -1.4185 3.71375 -2.48145 1.062925 -1.06295 1.906175 -2.32495 2.481425 -3.71375 0.556725 -1.344 0.851975 -2.7815 0.87045 -4.23525l0.000925 -0.145425 -0.000925 -0.145425c-0.018475 -1.45375 -0.313725 -2.891225 -0.87045 -4.235225 -0.57525 -1.388825 -1.4185 -2.6508 -2.481425 -3.71375 -1.06295 -1.06295 -2.32495 -1.90619 -3.71375 -2.481455 -1.388825 -0.5752625 -2.87745 -0.8713675 -4.380675 -0.8713675Z" stroke-width="0.25"></path>
  <path fill="#afdad2" stroke="#ffffff" stroke-width="0.0625" d="M9.469225 7.041375c0.11695 0 0.2291 -0.04645 0.311775 -0.12915 0.0827 -0.082675 0.12915 -0.194825 0.12915 -0.311775 0 -0.116925 -0.04645 -0.229075 -0.12915 -0.311775 -0.082675 -0.082675 -0.194825 -0.129125 -0.311775 -0.129125 -0.116925 0 -0.229075 0.04645 -0.311775 0.129125 -0.082675 0.0827 -0.129125 0.19485 -0.129125 0.311775 0 0.11695 0.04645 0.2291 0.129125 0.311775 0.0827 0.0827 0.19485 0.12915 0.311775 0.12915Z"></path>
  <path fill="#afdad2" stroke="#ffffff" stroke-width="0.0625" d="M8.519925 7.706225c0.11325 0 0.221875 -0.045 0.30195 -0.125075 0.080075 -0.080075 0.125075 -0.1887 0.125075 -0.30195 0 -0.11325 -0.045 -0.221875 -0.125075 -0.30195 -0.080075 -0.080075 -0.1887 -0.125075 -0.30195 -0.125075 -0.11325 0 -0.221875 0.045 -0.30195 0.125075 -0.080075 0.080075 -0.125075 0.1887 -0.125075 0.30195 0 0.11325 0.045 0.221875 0.125075 0.30195 0.080075 0.080075 0.1887 0.125075 0.30195 0.125075Z"></path>
  <path fill="#afdad2" stroke="#ffffff" stroke-width="0.0625" d="M7.6064 8.129075c0.106625 0 0.2089 -0.042375 0.2843 -0.117775s0.11775 -0.177675 0.11775 -0.2843 -0.04235 -0.2089 -0.11775 -0.2843c-0.0754 -0.075375 -0.177675 -0.11775 -0.2843 -0.11775s-0.2089 0.042375 -0.2843 0.11775c-0.0754 0.0754 -0.11775 0.177675 -0.11775 0.2843s0.04235 0.2089 0.11775 0.2843 0.177675 0.117775 0.2843 0.117775Z"></path>
  <path fill="#afdad2" stroke="#ffffff" stroke-width="0.0625" d="M10.270125 6.515975c0.1204 0 0.235875 -0.047825 0.321025 -0.132975 0.085125 -0.085125 0.13295 -0.2006 0.13295 -0.321 0 -0.1204 -0.047825 -0.235875 -0.13295 -0.321 -0.08515 -0.085125 -0.200625 -0.132975 -0.321025 -0.132975 -0.120375 0 -0.235875 0.04785 -0.321 0.132975s-0.132975 0.2006 -0.132975 0.321c0 0.1204 0.04785 0.235875 0.132975 0.321 0.085125 0.08515 0.200625 0.132975 0.321 0.132975Z"></path>
  <path fill="#afdad2" stroke="#ffffff" stroke-width="0.0625" d="M6.921125 7.17575c0.0809 0 0.1585 -0.032125 0.2157 -0.08935 0.0572 -0.0572 0.08935 -0.134775 0.08935 -0.215675s-0.03215 -0.1585 -0.08935 -0.2157 -0.1348 -0.08935 -0.2157 -0.08935 -0.1585 0.03215 -0.2157 0.08935 -0.089325 0.1348 -0.089325 0.2157 0.032125 0.158475 0.089325 0.215675c0.0572 0.057225 0.1348 0.08935 0.2157 0.08935Z"></path>
  <path fill="#afdad2" stroke="#ffffff" stroke-width="0.0625" d="M6.168075 8.8469c0.0961 0 0.1883 -0.0382 0.25625 -0.10615 0.067975 -0.067975 0.10615 -0.16015 0.10615 -0.256275 0 -0.0961 -0.038175 -0.1883 -0.10615 -0.25625 -0.06795 -0.067975 -0.16015 -0.10615 -0.25625 -0.10615 -0.096125 0 -0.1883 0.038175 -0.256275 0.10615 -0.06795 0.06795 -0.106125 0.16015 -0.106125 0.25625 0 0.096125 0.038175 0.1883 0.106125 0.256275 0.067975 0.06795 0.16015 0.10615 0.256275 0.10615Z"></path>
  <path fill="#afdad2" stroke="#ffffff" stroke-width="0.0625" d="M6.628825 5.97715c0.115825 0 0.2269 -0.046025 0.3088 -0.1279 0.0819 -0.0819 0.1279 -0.192975 0.1279 -0.3088 0 -0.1158 -0.046 -0.2269 -0.1279 -0.308775 -0.0819 -0.0819 -0.192975 -0.127925 -0.3088 -0.127925 -0.1158 0 -0.2269 0.046025 -0.308775 0.127925 -0.0819 0.081875 -0.1279 0.192975 -0.1279 0.308775 0 0.115825 0.046 0.2269 0.1279 0.3088 0.081875 0.081875 0.192975 0.1279 0.308775 0.1279Z"></path>
  <path fill="#afdad2" stroke="#ffffff" stroke-width="0.0625" d="M7.80745 6.794475c0.089575 0 0.175475 -0.035575 0.238825 -0.098925 0.063325 -0.063325 0.0989 -0.149225 0.0989 -0.2388 0 -0.089575 -0.035575 -0.175475 -0.0989 -0.238825 -0.06335 -0.063325 -0.14925 -0.0989 -0.238825 -0.0989 -0.08955 0 -0.175475 0.035575 -0.2388 0.0989 -0.06335 0.06335 -0.098925 0.14925 -0.098925 0.238825 0 0.089575 0.035575 0.175475 0.098925 0.2388 0.063325 0.06335 0.14925 0.098925 0.2388 0.098925Z"></path>
  <path fill="#afdad2" stroke="#ffffff" stroke-width="0.0625" d="M13.631375 5.786325c0.10475 0 0.2052 -0.041625 0.279275 -0.115675 0.07405 -0.07405 0.11565 -0.174525 0.11565 -0.27925 0 -0.10475 -0.0416 -0.2052 -0.11565 -0.279275 -0.074075 -0.07405 -0.174525 -0.115675 -0.279275 -0.115675 -0.104725 0 -0.2052 0.041625 -0.27925 0.115675 -0.074075 0.074075 -0.115675 0.174525 -0.115675 0.279275 0 0.104725 0.0416 0.2052 0.115675 0.27925 0.07405 0.07405 0.174525 0.115675 0.27925 0.115675Z"></path>
  <path fill="#afdad2" stroke="#ffffff" stroke-width="0.0625" d="M5.348275 7.880025c0.0635 0 0.1244 -0.025225 0.169275 -0.0701 0.0449 -0.0449 0.070125 -0.1058 0.070125 -0.169275 0 -0.0635 -0.025225 -0.1244 -0.070125 -0.1693 -0.044875 -0.044875 -0.105775 -0.0701 -0.169275 -0.0701 -0.063475 0 -0.124375 0.025225 -0.169275 0.0701 -0.0449 0.0449 -0.070125 0.1058 -0.070125 0.1693 0 0.063475 0.025225 0.124375 0.070125 0.169275 0.0449 0.044875 0.1058 0.0701 0.169275 0.0701Z"></path>
  <path fill="#afdad2" stroke="#ffffff" stroke-width="0.0625" d="M6.143675 7.65455c0.07535 0 0.1476 -0.029925 0.200875 -0.0832 0.05325 -0.053275 0.0832 -0.125525 0.0832 -0.200875 0 -0.075325 -0.02995 -0.147575 -0.0832 -0.20085 -0.053275 -0.053275 -0.125525 -0.0832 -0.200875 -0.0832 -0.075325 0 -0.147575 0.029925 -0.20085 0.0832 -0.053275 0.053275 -0.0832 0.125525 -0.0832 0.20085 0 0.07535 0.029925 0.1476 0.0832 0.200875 0.053275 0.053275 0.125525 0.0832 0.20085 0.0832Z"></path>
  <path fill="#afdad2" stroke="#ffffff" stroke-width="0.0625" d="M4.69325 6.7544c0.09985 0 0.19565 -0.039675 0.266275 -0.1103s0.1103 -0.166425 0.1103 -0.2663c0 -0.099875 -0.039675 -0.19565 -0.1103 -0.266275s-0.166425 -0.1103 -0.266275 -0.1103c-0.099875 0 -0.195675 0.039675 -0.2663 0.1103s-0.1103 0.1664 -0.1103 0.266275c0 0.099875 0.039675 0.195675 0.1103 0.2663s0.166425 0.1103 0.2663 0.1103Z"></path>
  <path fill="#afdad2" stroke="#ffffff" stroke-width="0.0625" d="M6.174825 6.588425c0.052075 0 0.102 -0.020675 0.138825 -0.0575 0.0368 -0.0368 0.0575 -0.08675 0.0575 -0.1388 0 -0.052075 -0.0207 -0.102 -0.0575 -0.138825 -0.036825 -0.036825 -0.08675 -0.0575 -0.138825 -0.0575 -0.05205 0 -0.102 0.020675 -0.1388 0.0575 -0.036825 0.036825 -0.0575 0.08675 -0.0575 0.138825 0 0.05205 0.020675 0.102 0.0575 0.1388 0.0368 0.036825 0.08675 0.0575 0.1388 0.0575Z"></path>
  <path fill="#afdad2" stroke="#ffffff" stroke-width="0.0625" d="M8.803625 6.282175c0.0972 0 0.190425 -0.038625 0.25915 -0.10735 0.068725 -0.068725 0.10735 -0.16195 0.10735 -0.25915 0 -0.097175 -0.038625 -0.1904 -0.10735 -0.25915 -0.068725 -0.068725 -0.16195 -0.107325 -0.25915 -0.107325 -0.0972 0 -0.190425 0.0386 -0.25915 0.107325 -0.068725 0.06875 -0.10735 0.161975 -0.10735 0.25915 0 0.0972 0.038625 0.190425 0.10735 0.25915 0.068725 0.068725 0.16195 0.10735 0.25915 0.10735Z"></path>
  <path fill="#afdad2" stroke="#ffffff" stroke-width="0.0625" d="M11.58765 6.494375c0.083875 0 0.164325 -0.033325 0.22365 -0.092625 0.0593 -0.059325 0.092625 -0.139775 0.092625 -0.22365 0 -0.083875 -0.033325 -0.164325 -0.092625 -0.22365 -0.059325 -0.0593 -0.139775 -0.092625 -0.22365 -0.092625 -0.083875 0 -0.16435 0.033325 -0.22365 0.092625 -0.0593 0.059325 -0.09265 0.139775 -0.09265 0.22365 0 0.083875 0.03335 0.164325 0.09265 0.22365 0.0593 0.0593 0.139775 0.092625 0.22365 0.092625Z"></path>
  <path fill="#afdad2" stroke="#ffffff" stroke-width="0.0625" d="M12.16685 4.521075c0.0549 0 0.10755 -0.021825 0.146375 -0.06065 0.0388 -0.0388 0.060625 -0.091475 0.060625 -0.146375 0 -0.0549 -0.021825 -0.10755 -0.060625 -0.146375 -0.038825 -0.0388 -0.091475 -0.060625 -0.146375 -0.060625 -0.0549 0 -0.10755 0.021825 -0.146375 0.060625 -0.038825 0.038825 -0.060625 0.091475 -0.060625 0.146375 0 0.0549 0.0218 0.107575 0.060625 0.146375 0.038825 0.038825 0.091475 0.06065 0.146375 0.06065Z"></path>
  <path fill="#afdad2" stroke="#ffffff" stroke-width="0.0625" d="M12.8398 5.7128c0.091725 0 0.179725 -0.03645 0.244575 -0.101325 0.064875 -0.06485 0.101325 -0.15285 0.101325 -0.244575 0 -0.09175 -0.03645 -0.179725 -0.101325 -0.2446 -0.06485 -0.06485 -0.15285 -0.1013 -0.244575 -0.1013 -0.09175 0 -0.179725 0.03645 -0.2446 0.1013 -0.06485 0.064875 -0.1013 0.15285 -0.1013 0.2446 0 0.091725 0.03645 0.179725 0.1013 0.244575 0.064875 0.064875 0.15285 0.101325 0.2446 0.101325Z"></path>
  <path fill="#afdad2" stroke="#ffffff" stroke-width="0.0625" d="M9.3841 5.5109c0.094275 0 0.184675 -0.03745 0.251325 -0.1041 0.06665 -0.06665 0.1041 -0.157075 0.1041 -0.251325 0 -0.094275 -0.03745 -0.184675 -0.1041 -0.251325 -0.06665 -0.06665 -0.15705 -0.1041 -0.251325 -0.1041 -0.09425 0 -0.18465 0.03745 -0.251325 0.1041 -0.06665 0.06665 -0.1041 0.15705 -0.1041 0.251325 0 0.09425 0.03745 0.184675 0.1041 0.251325 0.066675 0.06665 0.157075 0.1041 0.251325 0.1041Z"></path>
  <path fill="#afdad2" stroke="#ffffff" stroke-width="0.0625" d="M4.931725 8.926925c0.0765 0 0.14985 -0.030375 0.20395 -0.084475 0.054075 -0.054075 0.084475 -0.12745 0.084475 -0.203925 0 -0.0765 -0.0304 -0.149875 -0.084475 -0.20395 -0.0541 -0.0541 -0.12745 -0.084475 -0.20395 -0.084475 -0.076475 0 -0.14985 0.030375 -0.20395 0.084475 -0.054075 0.054075 -0.084475 0.12745 -0.084475 0.20395 0 0.076475 0.0304 0.14985 0.084475 0.203925 0.0541 0.0541 0.127475 0.084475 0.20395 0.084475Z"></path>
  <path fill="#afdad2" stroke="#ffffff" stroke-width="0.0625" d="M14.4312 5.861775c0.116475 0 0.228225 -0.046275 0.3106 -0.12865 0.082375 -0.082375 0.12865 -0.1941 0.12865 -0.3106 0 -0.116475 -0.046275 -0.228225 -0.12865 -0.3106 -0.082375 -0.082375 -0.194125 -0.12865 -0.3106 -0.12865 -0.1165 0 -0.228225 0.046275 -0.3106 0.12865 -0.082375 0.082375 -0.12865 0.194125 -0.12865 0.3106 0 0.1165 0.046275 0.228225 0.12865 0.3106 0.082375 0.082375 0.1941 0.12865 0.3106 0.12865Z"></path>
  <path fill="#afdad2" stroke="#ffffff" stroke-width="0.0625" d="M10.19285 5.5643c0.106925 0 0.2095 -0.042475 0.2851 -0.118075 0.0756 -0.075625 0.1181 -0.178175 0.1181 -0.2851 0 -0.106925 -0.0425 -0.2095 -0.1181 -0.2851 -0.0756 -0.0756 -0.178175 -0.1181 -0.2851 -0.1181 -0.106925 0 -0.209475 0.0425 -0.285075 0.1181 -0.075625 0.0756 -0.1181 0.178175 -0.1181 0.2851 0 0.106925 0.042475 0.209475 0.1181 0.2851 0.0756 0.0756 0.17815 0.118075 0.285075 0.118075Z"></path>
  <path fill="#afdad2" stroke="#ffffff" stroke-width="0.0625" d="M5.508325 5.889325c0.099125 0 0.194225 -0.039375 0.264325 -0.109475 0.070075 -0.0701 0.109475 -0.1652 0.109475 -0.264325 0 -0.099125 -0.0394 -0.194225 -0.109475 -0.264325 -0.0701 -0.0701 -0.1652 -0.109475 -0.264325 -0.109475 -0.099125 0 -0.194225 0.039375 -0.264325 0.109475 -0.0701 0.0701 -0.109475 0.1652 -0.109475 0.264325 0 0.099125 0.039375 0.194225 0.109475 0.264325 0.0701 0.0701 0.1652 0.109475 0.264325 0.109475Z"></path>
  <path fill="#afdad2" stroke="#ffffff" stroke-width="0.0625" d="M7.58865 4.92425c0.1146 0 0.22455 -0.04555 0.305575 -0.126575 0.08105 -0.08105 0.126575 -0.190975 0.126575 -0.305575 0 -0.114625 -0.045525 -0.22455 -0.126575 -0.3056 -0.081025 -0.081025 -0.190975 -0.126575 -0.305575 -0.126575 -0.1146 0 -0.22455 0.04555 -0.305575 0.126575 -0.08105 0.08105 -0.126575 0.190975 -0.126575 0.3056 0 0.1146 0.045525 0.224525 0.126575 0.305575 0.081025 0.081025 0.190975 0.126575 0.305575 0.126575Z"></path>
  <path fill="#afdad2" stroke="#ffffff" stroke-width="0.0625" d="M15.696875 5.506025c0.070775 0 0.138675 -0.028125 0.18875 -0.078175 0.05005 -0.05005 0.078175 -0.11795 0.078175 -0.18875s-0.028125 -0.1387 -0.078175 -0.18875c-0.050075 -0.05005 -0.117975 -0.078175 -0.18875 -0.078175 -0.0708 0 -0.1387 0.028125 -0.18875 0.078175 -0.050075 0.05005 -0.0782 0.11795 -0.0782 0.18875s0.028125 0.1387 0.0782 0.18875c0.05005 0.05005 0.11795 0.078175 0.18875 0.078175Z"></path>
  <path fill="#afdad2" stroke="#ffffff" stroke-width="0.0625" d="M6.39865 4.416075c0.09005 0 0.176425 -0.035775 0.240125 -0.09945 0.063675 -0.063675 0.09945 -0.15005 0.09945 -0.240125 0 -0.09005 -0.035775 -0.176425 -0.09945 -0.2401 -0.0637 -0.063675 -0.150075 -0.09945 -0.240125 -0.09945 -0.09005 0 -0.176425 0.035775 -0.2401 0.09945 -0.0637 0.063675 -0.099475 0.15005 -0.099475 0.2401 0 0.090075 0.035775 0.17645 0.099475 0.240125 0.063675 0.063675 0.15005 0.09945 0.2401 0.09945Z"></path>
  <path fill="#afdad2" stroke="#ffffff" stroke-width="0.0625" d="M7.93 5.937025c0.07665 0 0.15015 -0.03045 0.20435 -0.08465s0.08465 -0.127725 0.08465 -0.20435c0 -0.07665 -0.03045 -0.150175 -0.08465 -0.204375s-0.1277 -0.08465 -0.20435 -0.08465 -0.150175 0.03045 -0.20435 0.08465c-0.0542 0.0542 -0.08465 0.127725 -0.08465 0.204375 0 0.076625 0.03045 0.15015 0.08465 0.20435 0.054175 0.0542 0.1277 0.08465 0.20435 0.08465Z"></path>
  <path fill="#afdad2" stroke="#ffffff" stroke-width="0.0625" d="M8.6221 5.30965c0.077875 0 0.152575 -0.030925 0.207625 -0.086 0.055075 -0.05505 0.086 -0.12975 0.086 -0.207625 0 -0.07785 -0.030925 -0.15255 -0.086 -0.207625 -0.05505 -0.05505 -0.12975 -0.086 -0.207625 -0.086 -0.07785 0 -0.15255 0.03095 -0.2076 0.086 -0.055075 0.055075 -0.086 0.129775 -0.086 0.207625 0 0.077875 0.030925 0.152575 0.086 0.207625 0.05505 0.055075 0.12975 0.086 0.2076 0.086Z"></path>
  <path fill="#afdad2" stroke="#ffffff" stroke-width="0.0625" d="M4.087475 6.0557c0.0784 0 0.1536 -0.03115 0.209025 -0.0866 0.055425 -0.055425 0.086575 -0.130625 0.086575 -0.209025s-0.03115 -0.153575 -0.086575 -0.209025c-0.055425 -0.055425 -0.130625 -0.086575 -0.209025 -0.086575s-0.1536 0.03115 -0.209025 0.086575c-0.055425 0.05545 -0.086575 0.130625 -0.086575 0.209025s0.03115 0.1536 0.086575 0.209025c0.055425 0.05545 0.130625 0.0866 0.209025 0.0866Z"></path>
  <path fill="#afdad2" stroke="#ffffff" stroke-width="0.0625" d="M4.90145 4.90615c0.071925 0 0.1409 -0.028575 0.19175 -0.079425 0.05085 -0.05085 0.079425 -0.11985 0.079425 -0.19175 0 -0.071925 -0.028575 -0.140925 -0.079425 -0.191775 -0.05085 -0.05085 -0.119825 -0.079425 -0.19175 -0.079425s-0.140925 0.028575 -0.191775 0.079425c-0.05085 0.05085 -0.079425 0.11985 -0.079425 0.191775 0 0.0719 0.028575 0.1409 0.079425 0.19175 0.05085 0.05085 0.11985 0.079425 0.191775 0.079425Z"></path>
  <path fill="#afdad2" stroke="#ffffff" stroke-width="0.0625" d="M11.158075 5.747925c0.0603 0 0.1181 -0.02395 0.160725 -0.066575 0.042625 -0.042625 0.066575 -0.100425 0.066575 -0.160725 0 -0.060275 -0.02395 -0.1181 -0.066575 -0.160725 -0.042625 -0.042625 -0.100425 -0.066575 -0.160725 -0.066575 -0.060275 0 -0.1181 0.02395 -0.160725 0.066575 -0.042625 0.042625 -0.066575 0.10045 -0.066575 0.160725 0 0.0603 0.02395 0.1181 0.066575 0.160725 0.042625 0.042625 0.10045 0.066575 0.160725 0.066575Z"></path>
  <path fill="#afdad2" stroke="#ffffff" stroke-width="0.0625" d="M3.87885 7.552c0.099625 0 0.195175 -0.039575 0.265625 -0.110025 0.07045 -0.07045 0.110025 -0.166025 0.110025 -0.26565 0 -0.099625 -0.039575 -0.195175 -0.110025 -0.265625 -0.07045 -0.07045 -0.166 -0.11005 -0.265625 -0.11005 -0.099625 0 -0.1952 0.0396 -0.26565 0.11005 -0.07045 0.07045 -0.110025 0.166 -0.110025 0.265625 0 0.099625 0.039575 0.1952 0.110025 0.26565 0.07045 0.07045 0.166025 0.110025 0.26565 0.110025Z"></path>
  <path fill="#afdad2" stroke="#ffffff" stroke-width="0.0625" d="M3.03985 6.918575c0.0749 0 0.14675 -0.02975 0.1997 -0.0827 0.052975 -0.052975 0.082725 -0.1248 0.082725 -0.1997s-0.02975 -0.14675 -0.082725 -0.1997c-0.05295 -0.05295 -0.1248 -0.082725 -0.1997 -0.082725 -0.074875 0 -0.146725 0.029775 -0.199675 0.082725 -0.052975 0.05295 -0.082725 0.1248 -0.082725 0.1997s0.02975 0.146725 0.082725 0.1997c0.05295 0.05295 0.1248 0.0827 0.199675 0.0827Z"></path>
  <path fill="#afdad2" stroke="#ffffff" stroke-width="0.0625" d="M11.933475 5.682025c0.07535 0 0.1476 -0.029925 0.200875 -0.0832 0.053275 -0.053275 0.0832 -0.125525 0.0832 -0.20085 0 -0.07535 -0.029925 -0.1476 -0.0832 -0.200875 -0.053275 -0.053275 -0.125525 -0.0832 -0.200875 -0.0832 -0.075325 0 -0.147575 0.029925 -0.20085 0.0832 -0.053275 0.053275 -0.0832 0.125525 -0.0832 0.200875 0 0.075325 0.029925 0.147575 0.0832 0.20085 0.053275 0.053275 0.125525 0.0832 0.20085 0.0832Z"></path>
  <path fill="#afdad2" stroke="#ffffff" stroke-width="0.0625" d="M5.4748 7.15715c0.11615 0 0.22755 -0.04615 0.309675 -0.128275 0.082125 -0.082125 0.128275 -0.193525 0.128275 -0.309675 0 -0.11615 -0.04615 -0.22755 -0.128275 -0.309675 -0.082125 -0.082125 -0.193525 -0.128275 -0.309675 -0.128275 -0.116125 0 -0.227525 0.04615 -0.309675 0.128275 -0.082125 0.082125 -0.12825 0.193525 -0.12825 0.309675 0 0.11615 0.046125 0.22755 0.12825 0.309675 0.08215 0.082125 0.19355 0.128275 0.309675 0.128275Z"></path>
  <path fill="#afdad2" stroke="#ffffff" stroke-width="0.0625" d="M15.1225 5.166025c0.11645 0 0.228125 -0.04625 0.31045 -0.128575 0.082325 -0.08235 0.1286 -0.194025 0.1286 -0.31045s-0.046275 -0.228125 -0.1286 -0.31045c-0.082325 -0.082325 -0.194 -0.128575 -0.31045 -0.128575 -0.116425 0 -0.2281 0.04625 -0.31045 0.128575 -0.082325 0.082325 -0.128575 0.194025 -0.128575 0.31045s0.04625 0.2281 0.128575 0.31045c0.08235 0.082325 0.194025 0.128575 0.31045 0.128575Z"></path>
  <path fill="#afdad2" stroke="#ffffff" stroke-width="0.0625" d="M4.111875 9.30285c0.067575 0 0.1324 -0.02685 0.180175 -0.07465 0.047775 -0.047775 0.074625 -0.1126 0.074625 -0.180175s-0.02685 -0.1324 -0.074625 -0.180175c-0.047775 -0.0478 -0.1126 -0.074625 -0.180175 -0.074625s-0.1324 0.026825 -0.180175 0.074625c-0.0478 0.047775 -0.07465 0.1126 -0.07465 0.180175s0.02685 0.1324 0.07465 0.180175c0.047775 0.0478 0.1126 0.07465 0.180175 0.07465Z"></path>
  <path fill="#afdad2" stroke="#ffffff" stroke-width="0.0625" d="M10.477175 4.332275c0.092925 0 0.182025 -0.0369 0.247725 -0.1026 0.0657 -0.0657 0.102625 -0.154825 0.102625 -0.24775 0 -0.0929 -0.036925 -0.182025 -0.102625 -0.247725 -0.0657 -0.0657 -0.1548 -0.1026 -0.247725 -0.1026 -0.0929 0 -0.182025 0.0369 -0.247725 0.1026 -0.0657 0.0657 -0.102625 0.154825 -0.102625 0.247725 0 0.092925 0.036925 0.18205 0.102625 0.24775 0.0657 0.0657 0.154825 0.1026 0.247725 0.1026Z"></path>
  <path fill="#afdad2" stroke="#ffffff" stroke-width="0.0625" d="M17.75645 4.8149c0.0949 0 0.18595 -0.037725 0.25305 -0.104825 0.067125 -0.067125 0.104825 -0.15815 0.104825 -0.253075 0 -0.0949 -0.0377 -0.18595 -0.104825 -0.25305 -0.0671 -0.067125 -0.15815 -0.104825 -0.25305 -0.104825 -0.094925 0 -0.18595 0.0377 -0.253075 0.104825 -0.0671 0.0671 -0.104825 0.15815 -0.104825 0.25305 0 0.094925 0.037725 0.18595 0.104825 0.253075 0.067125 0.0671 0.15815 0.104825 0.253075 0.104825Z"></path>
  <path fill="#afdad2" stroke="#ffffff" stroke-width="0.0625" d="M12.9953 4.632425c0.075575 0 0.14805 -0.030025 0.2015 -0.08345 0.053425 -0.05345 0.08345 -0.125925 0.08345 -0.2015s-0.030025 -0.148075 -0.08345 -0.2015c-0.05345 -0.05345 -0.125925 -0.083475 -0.2015 -0.083475s-0.148075 0.030025 -0.2015 0.083475c-0.05345 0.053425 -0.083475 0.125925 -0.083475 0.2015s0.030025 0.14805 0.083475 0.2015c0.053425 0.053425 0.125925 0.08345 0.2015 0.08345Z"></path>
  <path fill="#afdad2" stroke="#ffffff" stroke-width="0.0625" d="M6.782425 8.39185c0.098525 0 0.193025 -0.03915 0.2627 -0.1088 0.069675 -0.069675 0.108825 -0.1642 0.108825 -0.262725 0 -0.098525 -0.03915 -0.193025 -0.108825 -0.2627 -0.069675 -0.069675 -0.164175 -0.108825 -0.2627 -0.108825 -0.09855 0 -0.19305 0.03915 -0.262725 0.108825 -0.069675 0.069675 -0.1088 0.164175 -0.1088 0.2627s0.039125 0.19305 0.1088 0.262725c0.069675 0.06965 0.164175 0.1088 0.262725 0.1088Z"></path>
  <path fill="#afdad2" stroke="#ffffff" stroke-width="0.0625" d="M13.961775 4.7551c0.09435 0 0.184825 -0.037475 0.251525 -0.104175 0.0667 -0.0667 0.104175 -0.157175 0.104175 -0.251525 0 -0.094325 -0.037475 -0.1848 -0.104175 -0.251525 -0.0667 -0.0667 -0.157175 -0.104175 -0.251525 -0.104175 -0.094325 0 -0.1848 0.037475 -0.251525 0.104175 -0.0667 0.066725 -0.104175 0.1572 -0.104175 0.251525 0 0.09435 0.037475 0.184825 0.104175 0.251525 0.066725 0.0667 0.1572 0.104175 0.251525 0.104175Z"></path>
  <path fill="#afdad2" stroke="#ffffff" stroke-width="0.0625" d="M16.480575 5.1019c0.078175 0 0.15315 -0.031075 0.208425 -0.08635 0.0553 -0.055275 0.08635 -0.130275 0.08635 -0.20845s-0.03105 -0.15315 -0.08635 -0.208425c-0.055275 -0.055275 -0.13025 -0.08635 -0.208425 -0.08635s-0.153175 0.031075 -0.20845 0.08635c-0.055275 0.055275 -0.086325 0.13025 -0.086325 0.208425s0.03105 0.153175 0.086325 0.20845c0.055275 0.055275 0.130275 0.08635 0.20845 0.08635Z"></path>
  <path fill="#afdad2" stroke="#ffffff" stroke-width="0.0625" d="M19.263375 5.74075c0.070475 0 0.13805 -0.028 0.187875 -0.077825 0.049825 -0.049825 0.077825 -0.1174 0.077825 -0.187875 0 -0.070475 -0.028 -0.13805 -0.077825 -0.187875 -0.049825 -0.049825 -0.1174 -0.077825 -0.187875 -0.077825 -0.07045 0 -0.13805 0.028 -0.187875 0.077825 -0.049825 0.049825 -0.077825 0.1174 -0.077825 0.187875 0 0.070475 0.028 0.13805 0.077825 0.187875 0.049825 0.049825 0.117425 0.077825 0.187875 0.077825Z"></path>
  <path fill="#afdad2" stroke="#ffffff" stroke-width="0.0625" d="M9.3202 3.78845c0.060725 0 0.118975 -0.024125 0.161925 -0.067075 0.04295 -0.04295 0.067075 -0.1012 0.067075 -0.161925 0 -0.060725 -0.024125 -0.119 -0.067075 -0.161925 -0.04295 -0.04295 -0.1012 -0.067075 -0.161925 -0.067075 -0.06075 0 -0.119 0.024125 -0.16195 0.067075 -0.042925 0.042925 -0.067075 0.1012 -0.067075 0.161925 0 0.060725 0.02415 0.118975 0.067075 0.161925 0.04295 0.04295 0.1012 0.067075 0.16195 0.067075Z"></path>
  <path fill="#afdad2" stroke="#ffffff" stroke-width="0.0625" d="M11.402275 3.15965c0.0889 0 0.1742 -0.035325 0.23705 -0.0982 0.062875 -0.062875 0.0982 -0.14815 0.0982 -0.23705 0 -0.088925 -0.035325 -0.1742 -0.0982 -0.237075 -0.06285 -0.062875 -0.14815 -0.09819 -0.23705 -0.09819s-0.1742 0.035315 -0.237075 0.09819c-0.06285 0.062875 -0.098175 0.14815 -0.098175 0.237075 0 0.0889 0.035325 0.174175 0.098175 0.23705 0.062875 0.062875 0.148175 0.0982 0.237075 0.0982Z"></path>
  <path fill="#afdad2" stroke="#ffffff" stroke-width="0.0625" d="M19.204275 4.956875c0.11715 0 0.2295 -0.046525 0.312325 -0.12935 0.082825 -0.08285 0.129375 -0.1952 0.129375 -0.31235 0 -0.117125 -0.04655 -0.2295 -0.129375 -0.312325 -0.082825 -0.082825 -0.195175 -0.129375 -0.312325 -0.129375 -0.11715 0 -0.2295 0.04655 -0.312325 0.129375 -0.082825 0.082825 -0.129375 0.1952 -0.129375 0.312325 0 0.11715 0.04655 0.2295 0.129375 0.31235 0.082825 0.082825 0.195175 0.12935 0.312325 0.12935Z"></path>
  <path fill="#afdad2" stroke="#ffffff" stroke-width="0.0625" d="M10.89665 5.13745c0.1107 0 0.2169 -0.044 0.295175 -0.122275 0.078275 -0.078275 0.12225 -0.18445 0.12225 -0.29515 0 -0.1107 -0.043975 -0.216875 -0.12225 -0.29515 -0.078275 -0.078275 -0.184475 -0.122275 -0.295175 -0.122275 -0.1107 0 -0.216875 0.044 -0.29515 0.122275 -0.078275 0.078275 -0.12225 0.18445 -0.12225 0.29515 0 0.1107 0.043975 0.216875 0.12225 0.29515 0.078275 0.078275 0.18445 0.122275 0.29515 0.122275Z"></path>
  <path fill="#afdad2" stroke="#ffffff" stroke-width="0.0625" d="M12.440825 3.573025c0.110425 0 0.21635 -0.043875 0.294425 -0.12195 0.0781 -0.078075 0.121975 -0.184 0.121975 -0.29445 0 -0.110425 -0.043875 -0.21635 -0.121975 -0.294425 -0.078075 -0.0781 -0.184 -0.121975 -0.294425 -0.121975 -0.11045 0 -0.216375 0.043875 -0.29445 0.121975 -0.078075 0.078075 -0.12195 0.184 -0.12195 0.294425 0 0.11045 0.043875 0.216375 0.12195 0.29445 0.078075 0.078075 0.184 0.12195 0.29445 0.12195Z"></path>
  <path fill="#afdad2" stroke="#ffffff" stroke-width="0.0625" d="M16.050625 4.08015c0.1144 0 0.224125 -0.045475 0.305025 -0.12635 0.0809 -0.0809 0.12635 -0.190625 0.12635 -0.305025s-0.04545 -0.224125 -0.12635 -0.305025 -0.190625 -0.12635 -0.305025 -0.12635 -0.224125 0.04545 -0.305025 0.12635c-0.080875 0.0809 -0.126325 0.190625 -0.126325 0.305025s0.04545 0.224125 0.126325 0.305025c0.0809 0.080875 0.190625 0.12635 0.305025 0.12635Z"></path>
  <path fill="#afdad2" stroke="#ffffff" stroke-width="0.0625" d="M20.516425 6.79215c0.108325 0 0.2122 -0.043025 0.2888 -0.119625 0.076575 -0.076575 0.119625 -0.180475 0.119625 -0.288775 0 -0.108325 -0.04305 -0.2122 -0.119625 -0.2888 -0.0766 -0.076575 -0.180475 -0.1196 -0.2888 -0.1196 -0.1083 0 -0.212175 0.043025 -0.288775 0.1196 -0.076575 0.0766 -0.119625 0.180475 -0.119625 0.2888 0 0.1083 0.04305 0.2122 0.119625 0.288775 0.0766 0.0766 0.180475 0.119625 0.288775 0.119625Z"></path>
  <path fill="#afdad2" stroke="#ffffff" stroke-width="0.0625" d="M11.308125 1.847695c0.06185 0 0.12115 -0.0245675 0.164875 -0.068295 0.043725 -0.0437275 0.0683 -0.10304 0.0683 -0.1648775 0 -0.06184 -0.024575 -0.1211525 -0.0683 -0.16488 -0.043725 -0.043725 -0.103025 -0.068295 -0.164875 -0.068295 -0.06185 0 -0.12115 0.02457 -0.164875 0.068295 -0.043725 0.0437275 -0.0683 0.10304 -0.0683 0.16488 0 0.0618375 0.024575 0.12115 0.0683 0.1648775 0.043725 0.0437275 0.103025 0.068295 0.164875 0.068295Z"></path>
  <path fill="#afdad2" stroke="#ffffff" stroke-width="0.0625" d="M15.031825 4.3229c0.103825 0 0.203425 -0.04125 0.27685 -0.114675 0.073425 -0.073425 0.1147 -0.173025 0.1147 -0.276875 0 -0.10385 -0.041275 -0.20345 -0.1147 -0.276875 -0.073425 -0.073425 -0.173025 -0.114675 -0.27685 -0.114675 -0.10385 0 -0.20345 0.04125 -0.276875 0.114675 -0.073425 0.073425 -0.1147 0.173025 -0.1147 0.276875 0 0.10385 0.041275 0.20345 0.1147 0.276875 0.073425 0.073425 0.173025 0.114675 0.276875 0.114675Z"></path>
  <path fill="#afdad2" stroke="#ffffff" stroke-width="0.0625" d="M14.50795 3.570975c0.083825 0 0.164225 -0.033325 0.2235 -0.092575 0.059275 -0.059275 0.092575 -0.139675 0.092575 -0.2235 0 -0.083825 -0.0333 -0.164225 -0.092575 -0.223475 -0.059275 -0.059275 -0.139675 -0.092575 -0.2235 -0.092575 -0.083825 0 -0.164225 0.0333 -0.223475 0.092575 -0.059275 0.05925 -0.092575 0.13965 -0.092575 0.223475 0 0.083825 0.0333 0.164225 0.092575 0.2235 0.05925 0.05925 0.13965 0.092575 0.223475 0.092575Z"></path>
  <path fill="#afdad2" stroke="#ffffff" stroke-width="0.0625" d="M12.919575 2.88275c0.10755 0 0.210725 -0.04275 0.286775 -0.1188s0.118775 -0.1792 0.118775 -0.2867525c0 -0.10755 -0.042725 -0.2107125 -0.118775 -0.2867625 -0.07605 -0.07605 -0.179225 -0.11878 -0.286775 -0.11878s-0.2107 0.04273 -0.28675 0.11878 -0.118775 0.1792125 -0.118775 0.2867625c0 0.1075525 0.042725 0.2107025 0.118775 0.2867525 0.07605 0.07605 0.1792 0.1188 0.28675 0.1188Z"></path>
  <path fill="#afdad2" stroke="#ffffff" stroke-width="0.0625" d="M8.44605 4.53665c0.120575 0 0.2362 -0.0479 0.32145 -0.13315 0.08525 -0.08525 0.13315 -0.2009 0.13315 -0.32145 0 -0.120575 -0.0479 -0.2362 -0.13315 -0.32145 -0.08525 -0.08525 -0.200875 -0.13315 -0.32145 -0.13315 -0.12055 0 -0.2362 0.0479 -0.32145 0.13315 -0.08525 0.08525 -0.13315 0.200875 -0.13315 0.32145 0 0.12055 0.0479 0.2362 0.13315 0.32145 0.08525 0.08525 0.2009 0.13315 0.32145 0.13315Z"></path>
  <path fill="#afdad2" stroke="#ffffff" stroke-width="0.0625" d="M5.641475 3.867175c0.06565 0 0.128625 -0.026075 0.17505 -0.0725 0.046425 -0.046425 0.0725 -0.1094 0.0725 -0.17505 0 -0.06565 -0.026075 -0.128625 -0.0725 -0.17505 -0.046425 -0.046425 -0.1094 -0.0725 -0.17505 -0.0725 -0.06565 0 -0.128625 0.026075 -0.17505 0.0725 -0.046425 0.046425 -0.0725 0.1094 -0.0725 0.17505 0 0.06565 0.026075 0.128625 0.0725 0.17505 0.046425 0.046425 0.1094 0.0725 0.17505 0.0725Z"></path>
  <path fill="#afdad2" stroke="#ffffff" stroke-width="0.0625" d="M6.8185 3.701075c0.0851 0 0.16675 -0.0338 0.226925 -0.094 0.0602 -0.060175 0.094 -0.141825 0.094 -0.226925 0 -0.085125 -0.0338 -0.16675 -0.094 -0.22695 -0.060175 -0.060175 -0.141825 -0.094 -0.226925 -0.094 -0.085125 0 -0.16675 0.033825 -0.22695 0.094 -0.060175 0.0602 -0.094 0.141825 -0.094 0.22695 0 0.0851 0.033825 0.16675 0.094 0.226925 0.0602 0.0602 0.141825 0.094 0.22695 0.094Z"></path>
  <path fill="#afdad2" stroke="#ffffff" stroke-width="0.0625" d="M17.601625 5.645525c0.104925 0 0.20555 -0.041675 0.279725 -0.11585 0.0742 -0.074175 0.115875 -0.174825 0.115875 -0.279725s-0.041675 -0.205525 -0.115875 -0.279725c-0.074175 -0.074175 -0.1748 -0.11585 -0.279725 -0.11585 -0.1049 0 -0.205525 0.041675 -0.2797 0.11585 -0.0742 0.0742 -0.115875 0.174825 -0.115875 0.279725s0.041675 0.20555 0.115875 0.279725c0.074175 0.074175 0.1748 0.11585 0.2797 0.11585Z"></path>
  <path fill="#afdad2" stroke="#ffffff" stroke-width="0.0625" d="M13.261525 3.5603c0.058275 0 0.11415 -0.02315 0.155325 -0.064325 0.0412 -0.0412 0.06435 -0.097075 0.06435 -0.15535 0 -0.05825 -0.02315 -0.114125 -0.06435 -0.155325 -0.041175 -0.041175 -0.09705 -0.064325 -0.155325 -0.064325 -0.05825 0 -0.114125 0.02315 -0.155325 0.064325 -0.041175 0.0412 -0.064325 0.097075 -0.064325 0.155325 0 0.058275 0.02315 0.11415 0.064325 0.15535 0.0412 0.041175 0.097075 0.064325 0.155325 0.064325Z"></path>
  <path fill="#afdad2" stroke="#ffffff" stroke-width="0.0625" d="M8.596925 3.604375c0.1105 0 0.216475 -0.0439 0.2946 -0.122025 0.07815 -0.078125 0.12205 -0.1841 0.12205 -0.2946 0 -0.1105 -0.0439 -0.216475 -0.12205 -0.2946 -0.078125 -0.078125 -0.1841 -0.122025 -0.2946 -0.122025 -0.110475 0 -0.216475 0.0439 -0.2946 0.122025 -0.078125 0.078125 -0.122025 0.1841 -0.122025 0.2946 0 0.1105 0.0439 0.216475 0.122025 0.2946 0.078125 0.078125 0.184125 0.122025 0.2946 0.122025Z"></path>
  <path fill="#afdad2" stroke="#ffffff" stroke-width="0.0625" d="M2.483225 8.711925c0.096075 0 0.188225 -0.03815 0.25615 -0.1061 0.067925 -0.067925 0.1061 -0.160075 0.1061 -0.25615s-0.038175 -0.188225 -0.1061 -0.25615c-0.067925 -0.067925 -0.160075 -0.1061 -0.25615 -0.1061 -0.09607 0 -0.18822 0.038175 -0.2561525 0.1061s-0.1061 0.160075 -0.1061 0.25615 0.0381675 0.188225 0.1061 0.25615c0.0679325 0.06795 0.1600825 0.1061 0.2561525 0.1061Z"></path>
  <path fill="#afdad2" stroke="#ffffff" stroke-width="0.0625" d="M3.4482 8.836825c0.1116 0 0.218675 -0.04435 0.297575 -0.123275 0.078925 -0.0789 0.123275 -0.185975 0.123275 -0.297575 0 -0.111625 -0.04435 -0.218675 -0.123275 -0.2976 -0.0789 -0.078925 -0.185975 -0.12325 -0.297575 -0.12325 -0.111625 0 -0.218675 0.044325 -0.2976 0.12325 -0.0789 0.078925 -0.12325 0.185975 -0.12325 0.2976 0 0.1116 0.04435 0.218675 0.12325 0.297575 0.078925 0.078925 0.185975 0.123275 0.2976 0.123275Z"></path>
  <path fill="#afdad2" stroke="#ffffff" stroke-width="0.0625" d="M6.84925 5.126475c0.107425 0 0.21045 -0.042675 0.2864 -0.118625 0.075975 -0.07595 0.11865 -0.178975 0.11865 -0.2864 0 -0.107425 -0.042675 -0.21045 -0.11865 -0.2864 -0.07595 -0.075975 -0.178975 -0.11865 -0.2864 -0.11865 -0.107425 0 -0.21045 0.042675 -0.2864 0.11865 -0.07595 0.07595 -0.118625 0.178975 -0.118625 0.2864 0 0.107425 0.042675 0.21045 0.118625 0.2864 0.07595 0.07595 0.178975 0.118625 0.2864 0.118625Z"></path>
  <path fill="#afdad2" stroke="#ffffff" stroke-width="0.0625" d="M2.602125 7.810225c0.083275 0 0.163125 -0.033075 0.222 -0.09195 0.05885 -0.058875 0.09195 -0.138725 0.09195 -0.221975 0 -0.08325 -0.0331 -0.1631 -0.09195 -0.221975 -0.058875 -0.058875 -0.138725 -0.09195 -0.222 -0.09195 -0.08325 0 -0.1631 0.033075 -0.22197 0.09195 -0.05887 0.058875 -0.0919475 0.138725 -0.0919475 0.221975 0 0.08325 0.0330775 0.1631 0.0919475 0.221975 0.05887 0.058875 0.13872 0.09195 0.22197 0.09195Z"></path>
  <path fill="#afdad2" stroke="#ffffff" stroke-width="0.0625" d="M15.26065 3.253c0.0911 0 0.1785 -0.0362 0.242925 -0.100625 0.0644 -0.064425 0.1006 -0.151825 0.1006 -0.242925 0 -0.0911 -0.0362 -0.1785 -0.1006 -0.242925 -0.064425 -0.0644 -0.151825 -0.1006 -0.242925 -0.1006 -0.0911 0 -0.1785 0.0362 -0.242925 0.1006 -0.064425 0.064425 -0.1006 0.151825 -0.1006 0.242925 0 0.0911 0.036175 0.1785 0.1006 0.242925 0.064425 0.064425 0.151825 0.100625 0.242925 0.100625Z"></path>
  <path fill="#afdad2" stroke="#ffffff" stroke-width="0.0625" d="M5.697 4.695525c0.0829 0 0.162425 -0.03295 0.22105 -0.091575 0.058625 -0.058625 0.09155 -0.138125 0.09155 -0.221025 0 -0.082925 -0.032925 -0.162425 -0.09155 -0.22105 -0.058625 -0.058625 -0.13815 -0.091575 -0.22105 -0.091575s-0.162425 0.03295 -0.22105 0.091575c-0.058625 0.058625 -0.09155 0.138125 -0.09155 0.22105 0 0.0829 0.032925 0.1624 0.09155 0.221025 0.058625 0.058625 0.13815 0.091575 0.22105 0.091575Z"></path>
  <path fill="#afdad2" stroke="#ffffff" stroke-width="0.0625" d="M4.1815 8.461c0.116275 0 0.2278 -0.0462 0.310025 -0.1284 0.082225 -0.082225 0.128425 -0.193775 0.128425 -0.31005 0 -0.116275 -0.0462 -0.2278 -0.128425 -0.310025 -0.082225 -0.082225 -0.19375 -0.128425 -0.310025 -0.128425 -0.116275 0 -0.227825 0.0462 -0.31005 0.128425 -0.0822 0.082225 -0.1284 0.19375 -0.1284 0.310025 0 0.116275 0.0462 0.227825 0.1284 0.31005 0.082225 0.0822 0.193775 0.1284 0.31005 0.1284Z"></path>
  <path fill="#afdad2" stroke="#ffffff" stroke-width="0.0625" d="M18.434075 5.4773c0.113925 0 0.2232 -0.04525 0.303775 -0.125825 0.08055 -0.08055 0.1258 -0.189825 0.1258 -0.30375 0 -0.113925 -0.04525 -0.223175 -0.1258 -0.30375 -0.080575 -0.08055 -0.18985 -0.1258 -0.303775 -0.1258 -0.1139 0 -0.223175 0.04525 -0.30375 0.1258 -0.08055 0.080575 -0.1258 0.189825 -0.1258 0.30375 0 0.113925 0.04525 0.2232 0.1258 0.30375 0.080575 0.080575 0.18985 0.125825 0.30375 0.125825Z"></path>
  <path fill="#afdad2" stroke="#ffffff" stroke-width="0.0625" d="M19.982825 5.4261c0.07835 0 0.1535 -0.031125 0.208925 -0.086525 0.0554 -0.0554 0.086525 -0.130575 0.086525 -0.208925s-0.031125 -0.1535 -0.086525 -0.2089c-0.055425 -0.055425 -0.130575 -0.08655 -0.208925 -0.08655s-0.1535 0.031125 -0.2089 0.08655c-0.055425 0.0554 -0.08655 0.13055 -0.08655 0.2089s0.031125 0.153525 0.08655 0.208925c0.0554 0.0554 0.13055 0.086525 0.2089 0.086525Z"></path>
  <path fill="#afdad2" stroke="#ffffff" stroke-width="0.0625" d="M9.768525 4.6949c0.087275 0 0.171 -0.034675 0.2327 -0.096375 0.061725 -0.061725 0.0964 -0.145425 0.0964 -0.2327 0 -0.087275 -0.034675 -0.170975 -0.0964 -0.2327 -0.0617 -0.0617 -0.145425 -0.096375 -0.2327 -0.096375 -0.087275 0 -0.170975 0.034675 -0.232675 0.096375 -0.061725 0.061725 -0.0964 0.145425 -0.0964 0.2327 0 0.087275 0.034675 0.170975 0.0964 0.2327 0.0617 0.0617 0.1454 0.096375 0.232675 0.096375Z"></path>
  <path fill="#afdad2" stroke="#ffffff" stroke-width="0.0625" d="M16.99265 4.32505c0.0731 0 0.143225 -0.02905 0.1949 -0.080725 0.0517 -0.0517 0.080725 -0.1218 0.080725 -0.1949 0 -0.0731 -0.029025 -0.1432 -0.080725 -0.1949 -0.051675 -0.051675 -0.1218 -0.080725 -0.1949 -0.080725 -0.073075 0 -0.1432 0.02905 -0.194875 0.080725 -0.0517 0.0517 -0.080725 0.1218 -0.080725 0.1949 0 0.0731 0.029025 0.1432 0.080725 0.1949 0.051675 0.051675 0.1218 0.080725 0.194875 0.080725Z"></path>
  <path fill="#afdad2" stroke="#ffffff" stroke-width="0.0625" d="M16.874075 3.634275c0.119225 0 0.233575 -0.04735 0.317875 -0.13165 0.0843 -0.0843 0.131675 -0.19865 0.131675 -0.317875 0 -0.1192 -0.047375 -0.23355 -0.131675 -0.31785 -0.0843 -0.0843 -0.19865 -0.131675 -0.317875 -0.131675 -0.1192 0 -0.23355 0.047375 -0.31785 0.131675 -0.0843 0.0843 -0.131675 0.19865 -0.131675 0.31785 0 0.119225 0.047375 0.233575 0.131675 0.317875 0.0843 0.0843 0.19865 0.13165 0.31785 0.13165Z"></path>
  <path fill="#afdad2" stroke="#ffffff" stroke-width="0.0625" d="M11.331825 4.400325c0.106575 0 0.2088 -0.042325 0.284175 -0.1177 0.07535 -0.075375 0.1177 -0.1776 0.1177 -0.284175s-0.04235 -0.208825 -0.1177 -0.284175c-0.075375 -0.075375 -0.1776 -0.117725 -0.284175 -0.117725s-0.208825 0.04235 -0.284175 0.117725c-0.075375 0.07535 -0.117725 0.1776 -0.117725 0.284175s0.04235 0.2088 0.117725 0.284175c0.07535 0.075375 0.1776 0.1177 0.284175 0.1177Z"></path>
  <path fill="#afdad2" stroke="#ffffff" stroke-width="0.0625" d="M19.824875 6.343125c0.09145 0 0.17915 -0.036325 0.2438 -0.100975 0.06465 -0.064675 0.101 -0.152375 0.101 -0.2438 0 -0.09145 -0.03635 -0.17915 -0.101 -0.2438 -0.06465 -0.06465 -0.15235 -0.100975 -0.2438 -0.100975 -0.091425 0 -0.179125 0.036325 -0.2438 0.100975 -0.06465 0.06465 -0.100975 0.15235 -0.100975 0.2438 0 0.091425 0.036325 0.179125 0.100975 0.2438 0.064675 0.06465 0.152375 0.100975 0.2438 0.100975Z"></path>
  <path fill="#afdad2" stroke="#ffffff" stroke-width="0.0625" d="M3.365525 9.4563c0.053625 0 0.105075 -0.021325 0.143 -0.059225 0.0379 -0.037925 0.059225 -0.089375 0.059225 -0.143 0 -0.053625 -0.021325 -0.10505 -0.059225 -0.142975 -0.037925 -0.037925 -0.089375 -0.059225 -0.143 -0.059225 -0.053625 0 -0.10505 0.0213 -0.142975 0.059225 -0.037925 0.037925 -0.059225 0.08935 -0.059225 0.142975 0 0.053625 0.0213 0.105075 0.059225 0.143 0.037925 0.0379 0.08935 0.059225 0.142975 0.059225Z"></path>
  <path fill="#afdad2" stroke="#ffffff" stroke-width="0.0625" d="M7.61545 3.84905c0.100125 0 0.19615 -0.039775 0.26695 -0.110575 0.0708 -0.0708 0.110575 -0.166825 0.110575 -0.26695 0 -0.100125 -0.039775 -0.19615 -0.110575 -0.26695 -0.0708 -0.0708 -0.166825 -0.110575 -0.26695 -0.110575 -0.100125 0 -0.19615 0.039775 -0.26695 0.110575 -0.0708 0.0708 -0.110575 0.166825 -0.110575 0.26695 0 0.100125 0.039775 0.19615 0.110575 0.26695 0.0708 0.0708 0.166825 0.110575 0.26695 0.110575Z"></path>
  <path fill="#afdad2" stroke="#ffffff" stroke-width="0.0625" d="M10.3711 3.233425c0.071525 0 0.140125 -0.028425 0.190675 -0.079 0.050575 -0.05055 0.079 -0.11915 0.079 -0.190675 0 -0.0715 -0.028425 -0.1401 -0.079 -0.190675 -0.05055 -0.050575 -0.11915 -0.078975 -0.190675 -0.078975 -0.0715 0 -0.1401 0.0284 -0.190675 0.078975 -0.050575 0.050575 -0.078975 0.119175 -0.078975 0.190675 0 0.071525 0.0284 0.140125 0.078975 0.190675 0.050575 0.050575 0.119175 0.079 0.190675 0.079Z"></path>
  <path fill="#afdad2" stroke="#ffffff" stroke-width="0.0625" d="M18.19745 4.06385c0.09 0 0.1763 -0.03575 0.239925 -0.099375 0.063625 -0.063625 0.099375 -0.149925 0.099375 -0.239925 0 -0.089975 -0.03575 -0.1763 -0.099375 -0.239925 -0.063625 -0.063625 -0.149925 -0.099375 -0.239925 -0.099375 -0.089975 0 -0.1763 0.03575 -0.239925 0.099375 -0.063625 0.063625 -0.099375 0.14995 -0.099375 0.239925 0 0.09 0.03575 0.1763 0.099375 0.239925 0.063625 0.063625 0.14995 0.099375 0.239925 0.099375Z"></path>
  <path fill="#afdad2" stroke="#ffffff" stroke-width="0.0625" d="M9.6175 2.688825c0.111875 0 0.219225 -0.04445 0.29835 -0.123575 0.079125 -0.07912 0.123575 -0.18645 0.123575 -0.2983475 0 -0.1118975 -0.04445 -0.2192275 -0.123575 -0.29835 -0.079125 -0.079125 -0.186475 -0.1235825 -0.29835 -0.1235825 -0.1119 0 -0.21925 0.0444575 -0.29835 0.1235825 -0.079125 0.0791225 -0.1236 0.1864525 -0.1236 0.29835 0 0.1118975 0.044475 0.2192275 0.1236 0.2983475 0.0791 0.079125 0.18645 0.123575 0.29835 0.123575Z"></path>
  <path fill="#afdad2" stroke="#ffffff" stroke-width="0.0625" d="M16.237075 3.091725c0.103475 0 0.202725 -0.041125 0.2759 -0.114275 0.07315 -0.073175 0.114275 -0.172425 0.114275 -0.2759 0 -0.10345 -0.041125 -0.2027075 -0.114275 -0.2758725 -0.073175 -0.0731675 -0.172425 -0.114275 -0.2759 -0.114275 -0.10345 0 -0.2027 0.0411075 -0.275875 0.114275 -0.073175 0.073165 -0.114275 0.1724225 -0.114275 0.2758725 0 0.103475 0.0411 0.202725 0.114275 0.2759 0.073175 0.07315 0.172425 0.114275 0.275875 0.114275Z"></path>
  <path fill="#afdad2" stroke="#ffffff" stroke-width="0.0625" d="M7.715875 2.6759c0.0829 0 0.1624 -0.03295 0.221 -0.09155 0.058625 -0.058625 0.09155 -0.1381225 0.09155 -0.2210125 0 -0.08289 -0.032925 -0.1623975 -0.09155 -0.22101 -0.0586 -0.0586125 -0.1381 -0.0915475 -0.221 -0.0915475s-0.1624 0.032935 -0.221 0.0915475c-0.058625 0.0586125 -0.09155 0.13812 -0.09155 0.22101 0 0.08289 0.032925 0.1623875 0.09155 0.2210125 0.0586 0.0586 0.1381 0.09155 0.221 0.09155Z"></path>
  <path fill="#afdad2" stroke="#ffffff" stroke-width="0.0625" d="M8.4664 2.4344c0.09145 0 0.179175 -0.0363325 0.243825 -0.1009975 0.064675 -0.0646625 0.101 -0.15238 0.101 -0.2438275 0 -0.0914475 -0.036325 -0.1791625 -0.101 -0.2438275 -0.06465 -0.064665 -0.152375 -0.1009975 -0.243825 -0.1009975 -0.09145 0 -0.17915 0.0363325 -0.243825 0.1009975 -0.06465 0.064665 -0.101 0.15238 -0.101 0.2438275 0 0.0914475 0.03635 0.179165 0.101 0.2438275 0.064675 0.064665 0.152375 0.1009975 0.243825 0.1009975Z"></path>
  <path fill="#afdad2" stroke="#ffffff" stroke-width="0.0625" d="M13.78125 2.002085c0.1073 0 0.2102 -0.042625 0.286075 -0.1184875 0.07585 -0.075865 0.118475 -0.1787725 0.118475 -0.2860575 0 -0.1072875 -0.042625 -0.210195 -0.118475 -0.2860575 -0.075875 -0.0758625 -0.178775 -0.11849 -0.286075 -0.11849 -0.107275 0 -0.2102 0.0426275 -0.28605 0.11849 -0.075875 0.0758625 -0.1185 0.17877 -0.1185 0.2860575 0 0.107285 0.042625 0.2101925 0.1185 0.2860575 0.07585 0.0758625 0.178775 0.1184875 0.28605 0.1184875Z"></path>
  <path fill="#afdad2" stroke="#ffffff" stroke-width="0.0625" d="M12.155675 2.0879775c0.0835 0 0.1636 -0.033175 0.22265 -0.09222 0.05905 -0.0590475 0.092225 -0.13914 0.092225 -0.2226425 0 -0.0835025 -0.033175 -0.1635975 -0.092225 -0.2226425 -0.05905 -0.059045 -0.13915 -0.09222 -0.22265 -0.09222 -0.0835 0 -0.1636 0.033175 -0.222625 0.09222 -0.05905 0.059045 -0.092225 0.13914 -0.092225 0.2226425 0 0.0835025 0.033175 0.163595 0.092225 0.2226425 0.059025 0.059045 0.139125 0.09222 0.222625 0.09222Z"></path>
  <path fill="#afdad2" stroke="#ffffff" stroke-width="0.0625" d="M14.58915 2.4720075c0.06385 0 0.1251 -0.0253675 0.17025 -0.0705175 0.04515 -0.04515 0.070525 -0.106395 0.070525 -0.1702475 0 -0.06385 -0.025375 -0.125095 -0.070525 -0.170245 -0.04515 -0.04515 -0.1064 -0.07052 -0.17025 -0.07052 -0.06385 0 -0.1251 0.02537 -0.17025 0.07052 -0.04515 0.04515 -0.0705 0.106395 -0.0705 0.170245 0 0.0638525 0.02535 0.1250975 0.0705 0.1702475 0.04515 0.04515 0.1064 0.0705175 0.17025 0.0705175Z"></path>
  <path fill="#afdad2" stroke="#ffffff" stroke-width="0.0625" d="M13.7851 2.841675c0.1184 0 0.231975 -0.04705 0.3157 -0.130775s0.13075 -0.1973 0.13075 -0.3157c0 -0.118405 -0.047025 -0.2319775 -0.13075 -0.3157025 -0.083725 -0.083725 -0.1973 -0.1307675 -0.3157 -0.1307675 -0.118425 0 -0.231975 0.0470425 -0.3157 0.1307675 -0.083725 0.083725 -0.130775 0.1972975 -0.130775 0.3157025 0 0.1184 0.04705 0.231975 0.130775 0.3157s0.197275 0.130775 0.3157 0.130775Z"></path>
  <path fill="#afdad2" stroke="#ffffff" stroke-width="0.0625" d="M15.5572 2.4084425c0.0818 0 0.1603 -0.0325075 0.21815 -0.090365 0.05785 -0.0578575 0.090375 -0.1363425 0.090375 -0.218165 0 -0.0818225 -0.032525 -0.160305 -0.090375 -0.218165 -0.05785 -0.0578575 -0.13635 -0.090365 -0.21815 -0.090365 -0.081825 0 -0.160325 0.0325075 -0.218175 0.090365 -0.05785 0.05786 -0.090375 0.1363425 -0.090375 0.218165 0 0.0818225 0.032525 0.1603075 0.090375 0.218165 0.05785 0.0578575 0.13635 0.090365 0.218175 0.090365Z"></path>
  <path fill="#afdad2" stroke="#ffffff" stroke-width="0.0625" d="M1.71203 9.93505c0.102785 0 0.201375 -0.04085 0.2740525 -0.113525 0.07268 -0.072675 0.1135175 -0.17125 0.1135175 -0.27405 0 -0.102775 -0.0408375 -0.201375 -0.1135175 -0.27405 -0.0726775 -0.072675 -0.1712675 -0.113525 -0.2740525 -0.113525 -0.1027825 0 -0.2013725 0.04085 -0.27405 0.113525 -0.07268 0.072675 -0.1135175 0.171275 -0.1135175 0.27405 0 0.1028 0.0408375 0.201375 0.1135175 0.27405 0.0726775 0.072675 0.1712675 0.113525 0.27405 0.113525Z"></path>
  <path fill="#afdad2" stroke="#ffffff" stroke-width="0.0625" d="M10.5059 2.381925c0.05535 0 0.108425 -0.0219875 0.14755 -0.0611175 0.039125 -0.03913 0.061125 -0.0922075 0.061125 -0.147545 0 -0.0553375 -0.022 -0.1084175 -0.061125 -0.1475475s-0.0922 -0.061115 -0.14755 -0.061115c-0.055325 0 -0.108425 0.021985 -0.14755 0.061115 -0.039125 0.03913 -0.0611 0.09221 -0.0611 0.1475475s0.021975 0.108415 0.0611 0.147545c0.039125 0.03913 0.092225 0.0611175 0.14755 0.0611175Z"></path>
  <path fill="#afdad2" stroke="#ffffff" stroke-width="0.0625" d="M17.674425 3.3371c0.066775 0 0.130825 -0.026525 0.17805 -0.07375 0.047225 -0.047225 0.07375 -0.111275 0.07375 -0.17805 0 -0.066775 -0.026525 -0.130825 -0.07375 -0.17805 -0.047225 -0.047225 -0.111275 -0.07375 -0.17805 -0.07375 -0.0668 0 -0.13085 0.026525 -0.178075 0.07375 -0.0472 0.047225 -0.07375 0.111275 -0.07375 0.17805 0 0.066775 0.02655 0.130825 0.07375 0.17805 0.047225 0.047225 0.111275 0.07375 0.178075 0.07375Z"></path>
  <path fill="#afdad2" stroke="#ffffff" stroke-width="0.0625" d="M12.968075 2.07737c0.096575 0 0.189225 -0.0383725 0.2575 -0.1066675 0.0683 -0.068295 0.106675 -0.160935 0.106675 -0.2575175 0 -0.0965825 -0.038375 -0.1892225 -0.106675 -0.2575175 -0.068275 -0.068295 -0.160925 -0.1066675 -0.2575 -0.1066675 -0.0966 0 -0.189225 0.0383725 -0.257525 0.1066675s-0.106675 0.160935 -0.106675 0.2575175c0 0.0965825 0.038375 0.1892225 0.106675 0.2575175 0.0683 0.068295 0.160925 0.1066675 0.257525 0.1066675Z"></path>
  <path fill="#afdad2" stroke="#ffffff" stroke-width="0.0625" d="M4.651975 7.607425c0.111275 0 0.218 -0.0442 0.296675 -0.122875 0.078675 -0.078675 0.1229 -0.1854 0.1229 -0.296675 0 -0.111275 -0.044225 -0.218 -0.1229 -0.296675 -0.078675 -0.078675 -0.1854 -0.1229 -0.296675 -0.1229 -0.11125 0 -0.217975 0.044225 -0.296675 0.1229 -0.078675 0.078675 -0.122875 0.1854 -0.122875 0.296675 0 0.111275 0.0442 0.218 0.122875 0.296675 0.0787 0.078675 0.185425 0.122875 0.296675 0.122875Z"></path>
  <path fill="#ffffff" d="m16.254625 5.6257 -0.43305 -0.01035 -0.433125 0.009925 -0.43305 0.0301 -0.4328 0.049875 -0.432425 0.06905 -0.4319 0.087375 -0.431325 0.104625 -0.43065 0.12065 -0.42995 0.13525 -0.429225 0.148375 -0.4285 0.15985 -0.427775 0.16965 -0.4271 0.177725 -0.42645 0.18405 -0.4258 0.188675 -0.425225 0.1916 -0.84875 0.3856 -0.423625 0.191025 -0.42315 0.188 -0.4227 0.1838 -0.422325 0.17855 -0.42195 0.17235 -0.421625 0.165375 -0.421325 0.1578 -0.421075 0.149675 -0.420875 0.14125 -0.420725 0.13255 -0.4206 0.12375 -0.420525 0.11495 -0.420525 0.106225 -0.420525 0.097675 -0.4205675 0.0894 -0.4206675 0.081425 -0.4207875 0.0738 -0.4615875 0.072925 -0.0203475 0.1404c-0.07729 0.5333 -0.1161475 1.07175 -0.1161475 1.611225 0 0.420275 0.0235825 0.84 0.0705725 1.257225l0.02939 0.26095L1.47533 13.2475l0.4251375 -0.1917 0.8487325 -0.385575 0.423575 -0.190875 0.423 -0.187425 0.422425 -0.18235 0.421775 -0.175525 0.42115 -0.167 0.420425 -0.156875 0.419725 -0.1451 0.419 -0.131825 0.418275 -0.1172 0.417575 -0.101325 0.416925 -0.08435 0.4163 -0.066475 0.415825 -0.047925 0.4154 -0.028875 0.4152 -0.009525 0.4151 0.00995 0.415175 0.02925 0.415425 0.048275 0.4158 0.06675 0.416325 0.084525 0.4169 0.101425 0.417575 0.117225 0.418275 0.1318 0.419 0.144975 0.419725 0.1567 0.42045 0.166825 0.421125 0.1753 0.421775 0.182075 0.422425 0.1872 0.423025 0.190625 0.847675 0.3851 0.424625 0.191475 0.425075 0.188875 0.4255 0.185025 0.425925 0.180075 0.426275 0.174175 0.4266 0.167375 0.4269 0.159925 0.42715 0.1519 0.42735 0.143475 0.4275 0.13475 0.427625 0.1259 0.4277 0.116975 0.427725 0.108125 0.4277 0.099425 0.601475 0.128025 0.049975 -0.171725c0.2834 -0.973775 0.4338 -1.981875 0.446675 -2.99675l0.0009 -0.1415 -0.000875 -0.142725 -0.002975 -0.1527c-0.0362 -1.376475 -0.3247 -2.733625 -0.8513 -4.00495l-0.03885 -0.092625 -0.069375 -0.1605 -0.437225 -0.19665 -0.425075 -0.18835 -0.425825 -0.183825 -0.426425 -0.1775 -0.4271 -0.16945 -0.4278 -0.159675 -0.4285 -0.14825 -0.429225 -0.135225 -0.42995 -0.120675 -0.43065 -0.104725 -0.4313 -0.08755 -0.431925 -0.069325 -0.432425 -0.050225 -0.4328 -0.030475Zm-0.43755 0.182125 0.4241 0.009925 0.424125 0.029675 0.424125 0.049075 0.4241 0.0679 0.424125 0.08595 0.4241 0.103025 0.424125 0.118925 0.4241 0.133525 0.424125 0.146675 0.4241 0.158275 0.424125 0.16825 0.4241 0.1765 0.424125 0.183075 0.4241 0.187925 0.369375 0.16615c0.026275 0.060325 0.052 0.1209 0.0772 0.181725 0.5178 1.2501 0.801125 2.584025 0.836675 3.935025l0.002925 0.150175 0.0009 0.140275 -0.0009 0.140275c-0.012675 0.998725 -0.1608 1.9895 -0.439025 2.9454l-0.423025 -0.090025 -0.424125 -0.09855 -0.4241 -0.107175 -0.424125 -0.115975 -0.4241 -0.1248 -0.424125 -0.133675 -0.4241 -0.14235 -0.424125 -0.1508 -0.4241 -0.15885 -0.424125 -0.166375 -0.4241 -0.17325 -0.424125 -0.179325 -0.4241 -0.184425 -0.424125 -0.188425 -0.424125 -0.19125 -0.848225 -0.38535 -0.4241 -0.1911 -0.424125 -0.18795 -0.4241 -0.183075 -0.424125 -0.1765 -0.4241 -0.168225 -0.424125 -0.158275 -0.4241 -0.146675 -0.424125 -0.13355 -0.4241 -0.118925 -0.424125 -0.103025 -0.4241 -0.08595 -0.424125 -0.0679 -0.4241 -0.049075 -0.424125 -0.029675 -0.424125 -0.009925 -0.4241 0.009925 -0.424125 0.029675 -0.4241 0.049075 -0.424125 0.0679 -0.4241 0.08595 -0.424125 0.103025 -0.4241 0.118925 -0.424125 0.13355 -0.4241 0.146675 -0.424125 0.158275 -0.4241 0.168225 -0.424125 0.1765 -0.4241 0.183075 -0.424125 0.18795 -0.424125 0.1911 -0.848215 0.38535 -0.4241125 0.19125 -0.369475 0.164c-0.046115 -0.409475 -0.0693625 -0.822 -0.0693625 -1.235675 0 -0.531125 0.03832 -1.060325 0.1141575 -1.583625l0.32468 -0.0513 0.4241125 -0.074425 0.4241125 -0.082125 0.4241025 -0.090175 0.424125 -0.09855 0.424125 -0.1072 0.4241 -0.11595 0.424125 -0.124825 0.4241 -0.13365 0.424125 -0.14235 0.4241 -0.1508 0.424125 -0.15885 0.4241 -0.166375 0.424125 -0.17325 0.4241 -0.179325 0.424125 -0.184425 0.4241 -0.188425 0.424125 -0.19125 0.848225 -0.38535 0.424125 -0.191125 0.4241 -0.187925 0.424125 -0.183075 0.4241 -0.1765 0.424125 -0.16825 0.4241 -0.158275 0.424125 -0.146675 0.4241 -0.133525 0.424125 -0.118925 0.4241 -0.103025 0.424125 -0.08595 0.4241 -0.0679 0.424125 -0.049075 0.4241 -0.029675 0.424125 -0.009925Z" stroke-width="0.25"></path>
  <path fill="#7db0bc" stroke="#ffffff" d="m15.81695 5.762075 0.42625 0.01 0.4262 0.029825 0.42615 0.0493 0.426025 0.0682 0.425925 0.086325 0.42575 0.103425 0.425575 0.119325 0.425425 0.13395 0.42525 0.147075 0.4255 0.1588 0.424825 0.168525 0.424675 0.17675 0.4245 0.18325 0.424375 0.18805 0.3857 0.1738c0.028775 0.0658 0.056925 0.131925 0.084425 0.19835 0.527225 1.27285 0.812375 2.63225 0.8415 4.008525l0.0016 0.093925 0.0009 0.140875 -0.0009 0.14055c-0.012925 1.0171 -0.165725 2.025975 -0.452825 2.99845l-0.465525 -0.09895 -0.424975 -0.09875 -0.424975 -0.1074 -0.42495 -0.1162 -0.42495 -0.125075 -0.424925 -0.133925 -0.4249 -0.142625 -0.424825 -0.15105 -0.424775 -0.1591 -0.4247 -0.166625 -0.42465 -0.173475 -0.424525 -0.1795 -0.42445 -0.184575 -0.42435 -0.188525 -0.424225 -0.1913 -0.8481 -0.3853 -0.42385 -0.191 -0.423725 -0.18775 -0.42355 -0.18285 -0.4234 -0.1762 -0.423225 -0.1679 -0.4236 -0.158075 -0.422975 -0.1463 -0.422825 -0.133125 -0.422625 -0.1185 -0.422475 -0.102625 -0.422325 -0.0856 -0.4222 -0.0676 -0.422075 -0.048825 -0.422025 -0.029525 -0.421975 -0.0099 -0.421975 0.0099 -0.422 0.029525 -0.4221 0.048825 -0.422175 0.0676 -0.422325 0.0856 -0.422475 0.102625 -0.42265 0.1185 -0.4228 0.133125 -0.423 0.1463 -0.4227 0.157725 -0.4234 0.16795 -0.423575 0.176275 -0.4237 0.1829 -0.42385 0.187825 -0.423975 0.19105 -0.848355 0.3854 -0.42434 0.19135 -0.426525 0.189525c-0.0510875 -0.431625 -0.0768525 -0.86675 -0.0768525 -1.30315 0 -0.5446 0.0401275 -1.08725 0.1195225 -1.623575l0.3572825 -0.056575 0.42332 -0.07425 0.4232925 -0.08195 0.42328 -0.09 0.42325 -0.09835 0.42325 -0.10695 0.42325 -0.115725 0.4233 -0.124575 0.4233 -0.133375 0.423325 -0.1421 0.4234 -0.150525 0.42345 -0.1586 0.423525 -0.16615 0.4236 -0.173025 0.423675 -0.17915 0.423775 -0.184275 0.423875 -0.188325 0.424 -0.191175 0.84835 -0.385425 0.424375 -0.191225 0.424525 -0.1881 0.424675 -0.183325 0.424825 -0.1768 0.424975 -0.168575 0.42465 -0.15845 0.42525 -0.147075 0.4254 -0.13395 0.4256 -0.119325 0.42575 -0.103425 0.4259 -0.086325 0.426025 -0.0682 0.42615 -0.0493 0.426225 -0.029825 0.42625 -0.01Z" stroke-width="0.25"></path>
  <path fill="#5c7da2" d="m9.031225 10.89735 0.4241 0.009925 0.424125 0.029675 0.4241 0.049075 0.424125 0.0679 0.4241 0.08595 0.424125 0.103025L12 11.361825l0.424125 0.133525 0.424125 0.146675 0.4241 0.158275 0.424125 0.16825 0.4241 0.1765 0.424125 0.183075 0.4241 0.187925 0.424125 0.191125 0.4241 0.192675 0.424125 0.192675 0.4241 0.191225 0.424125 0.18845 0.4241 0.184425 0.424125 0.1793 0.4241 0.17325 0.424125 0.1664 0.4241 0.15885 0.424125 0.1508 0.424125 0.14235 0.4241 0.13365 0.424125 0.124825 0.4241 0.11595 0.424125 0.107175 0.4241 0.098575 0.363025 0.077175c-0.0991 0.31795 -0.212675 0.631825 -0.340575 0.940575 -0.554875 1.3396 -1.368225 2.556875 -2.393525 3.582175 -1.0253 1.0253 -2.242575 1.83865 -3.582175 2.393525C14.885875 22.7561 13.45 23.0417 12 23.0417c-1.449975 0 -2.88585 -0.2856 -4.22545 -0.8405 -1.3396 -0.554875 -2.5569 -1.368225 -3.582175 -2.393525 -1.0253 -1.0253 -1.838655 -2.242575 -2.3935375 -3.582175 -0.3706025 -0.894725 -0.62109 -1.832375 -0.7465925 -2.7885l0.3449325 -0.15325 0.4241125 -0.191225 0.4241125 -0.192675 0.4241225 -0.192675 0.4241 -0.191125 0.424125 -0.187925 0.4241 -0.183075 0.424125 -0.1765 0.4241 -0.16825 0.424125 -0.158275 0.4241 -0.146675 0.424125 -0.133525 0.4241 -0.118925 0.424125 -0.103025 0.424125 -0.08595 0.4241 -0.0679 0.424125 -0.049075 0.4241 -0.029675 0.424125 -0.009925Z" stroke-width="0.25"></path>
  <path fill="#444876" d="M9.87935 13.756475v1.42225h2.5447v1.964075h2.544675v1.343475h2.544675v0.567025h2.544675l0 0.4956c-0.082025 0.08755 -0.16555 0.173825 -0.2505 0.2588 -1.0253 1.025275 -2.242575 1.83865 -3.582175 2.393525 -1.339625 0.554875 -2.7755 0.8405 -4.225475 0.8405 -1.449975 0 -2.88585 -0.285625 -4.22545 -0.8405 -1.339625 -0.554875 -2.5569 -1.36825 -3.582175 -2.393525 -0.77775 -0.777725 -1.433525 -1.66595 -1.94706 -2.6342l0.0000825 -1.325125H4.79v-1.77235h2.544675v-0.31955h2.544675Z" stroke-width="0.25"></path>
  <path fill="#ffffff" d="m9.96645 13.66955 -0.00005 1.42225 2.544725 0 -0.00005 1.96405 2.544725 0.00005 -0.00005 1.343425 2.544725 0.000025 -0.00005 0.567025 2.544725 0.000025 0.0001 0.488525c-0.05725 0.062525 -0.115225 0.12445 -0.17395 0.1857l-0.000075 -0.500625 -2.3708 -0.00005 0 2.3761c-0.057625 0.033925 -0.1156 0.06735 -0.17385 0.100225l0 -3.043275 -2.370825 -0.000075 0 4.03755c-0.057825 0.01665 -0.115775 0.032825 -0.173825 0.048525l-0.000025 -5.4294 -2.370825 -0.000075 -0.000025 5.80035c-0.0579 0.002675 -0.115875 0.0049 -0.17385 0.006675l0.000025 -7.771075 -2.370825 0 0.000025 7.587325c-0.058075 -0.0109 -0.11605 -0.02225 -0.173925 -0.03405l0.000075 -8.97555h-2.3709l-0.000025 0.1459 0.0001 0.000025 -0.0001 8.0586c-0.0582 -0.026525 -0.11615 -0.05355 -0.173825 -0.08105l0.000075 -7.803925H4.877l-0.000025 1.598625 0.0001 0.000075 -0.0001 4.67535c-0.0584 -0.0493 -0.116325 -0.09925 -0.17375 -0.1498l0 -4.3518H2.33233l-0.000115 1.398675c-0.05973 -0.10825 -0.1176625 -0.21755 -0.1737675 -0.32785l0.000185 -1.244575 2.5446425 -0.000075 0.000025 -1.77225 2.54465 -0.000025 0.00005 -0.31955h2.71845Z" stroke-width="0.25"></path>
  <path fill="#444876" d="M12 0.25c1.543 0 3.071 0.3039375 4.496525 0.894415C17.922075 1.734895 19.21745 2.600425 20.3085 3.6915c1.091075 1.09105 1.9566 2.386425 2.547075 3.811975 0.57145 1.37955 0.874525 2.85505 0.893475 4.34725L23.75 12l-0.00095 0.149275c-0.01895 1.4922 -0.322025 2.9677 -0.893475 4.34725 -0.590475 1.42555 -1.456 2.720925 -2.547075 3.811975 -1.09105 1.091075 -2.386425 1.9566 -3.811975 2.547075C15.071 23.446075 13.543 23.75 12 23.75c-1.543 0 -3.071 -0.303925 -4.496525 -0.894425 -1.42555 -0.590475 -2.720925 -1.456 -3.811975 -2.547075 -1.091075 -1.09105 -1.956605 -2.386425 -2.547085 -3.811975C0.5539375 15.071 0.25 13.543 0.25 12c0 -1.543 0.3039375 -3.071 0.894415 -4.496525C1.734895 6.077925 2.600425 4.78255 3.6915 3.6915c1.09105 -1.091075 2.386425 -1.956605 3.811975 -2.547085C8.929 0.5539375 10.457 0.25 12 0.25Zm0 0.385825c-1.492325 0 -2.97015 0.2939575 -4.348875 0.8650475 -1.37875 0.57109 -2.631575 1.4082025 -3.6868 2.4634525 -1.05525 1.055225 -1.8923625 2.30805 -2.4634525 3.6868C0.9297825 9.02985 0.635825 10.507675 0.635825 12c0 1.492325 0.2939575 2.97015 0.8650475 4.348875 0.57109 1.37875 1.4082025 2.631575 2.4634525 3.6868 1.055225 1.05525 2.30805 1.892375 3.6868 2.46345C9.02985 23.070225 10.507675 23.364175 12 23.364175c1.492325 0 2.97015 -0.29395 4.348875 -0.86505 1.37875 -0.571075 2.631575 -1.4082 3.6868 -2.46345 1.05525 -1.055225 1.892375 -2.30805 2.46345 -3.6868 0.552675 -1.33425 0.8458 -2.7613 0.864125 -4.2045L23.364175 12l-0.000925 -0.144375c-0.018325 -1.4432 -0.31145 -2.87025 -0.864125 -4.2045 -0.571075 -1.37875 -1.4082 -2.631575 -2.46345 -3.6868 -1.055225 -1.05525 -2.30805 -1.8923625 -3.6868 -2.4634525C14.97015 0.9297825 13.492325 0.635825 12 0.635825Z" stroke-width="0.25"></path>
</svg>